<svg width="16" height="16" viewBox="0 0 16 16" fill="none" xmlns="http://www.w3.org/2000/svg">
<path fill-rule="evenodd" clip-rule="evenodd" d="M7.67189 1.69873e-05C3.43739 1.69873e-05 0 3.43947 0 7.67397C0 11.9085 3.43739 15.3459 7.67189 15.3458C7.73805 15.3458 7.80404 15.3451 7.8698 15.3432C8.79053 15.3199 9.67165 15.1338 10.4846 14.813C11.3759 14.4614 12.1852 13.9476 12.8773 13.3082C12.8928 13.2966 12.907 13.2832 12.9196 13.2684C14.4123 11.8684 15.3458 9.87968 15.3458 7.67395C15.3458 3.43945 11.9064 1.69873e-05 7.67189 1.69873e-05ZM7.67189 0.529184C11.6204 0.529184 14.8167 3.72545 14.8167 7.67397C14.8167 9.52483 14.1143 11.2098 12.9615 12.4778C12.9435 12.4976 12.925 12.5171 12.9067 12.5367C12.5306 10.567 11.0366 8.99388 9.09711 8.46823C9.1178 8.45764 9.13819 8.44671 9.15862 8.43567C10.132 7.90978 10.7952 6.8845 10.7952 5.70716C10.7952 3.99465 9.3921 2.6014 7.67188 2.6014C5.95166 2.6014 4.55114 3.99465 4.55114 5.70716C4.55114 6.90905 5.241 7.95279 6.24716 8.46823C5.65822 8.62788 5.11032 8.88386 4.62246 9.21857C4.58925 9.24136 4.55641 9.26431 4.52376 9.28782C3.45682 10.056 2.693 11.2063 2.43913 12.5372C1.2542 11.2626 0.529682 9.55403 0.529682 7.67396C0.529682 7.61227 0.530211 7.5508 0.531782 7.48948C0.629452 3.6264 3.78507 0.529184 7.67189 0.529184ZM7.67189 3.13109C9.10783 3.13109 10.266 4.28236 10.266 5.70716C10.266 7.08744 9.17913 8.2093 7.80572 8.27806C7.78889 8.27891 7.77199 8.27956 7.75508 8.28016C7.7274 8.27974 7.69966 8.27917 7.67188 8.27917C7.64451 8.27917 7.6175 8.2798 7.59023 8.28016C7.58997 8.28015 7.58944 8.28017 7.58913 8.28016C7.57222 8.27963 7.55531 8.27896 7.53849 8.27806C6.16521 8.20929 5.08025 7.08744 5.08025 5.70716C5.08025 5.6849 5.08077 5.66262 5.08135 5.6405C5.11669 4.24658 6.25837 3.13109 7.67189 3.13109ZM7.59179 8.8093C7.59629 8.80923 7.60068 8.80936 7.60522 8.8093C7.62747 8.80978 7.64952 8.8103 7.67189 8.8103C7.6943 8.8103 7.71678 8.80974 7.73907 8.8093C7.74067 8.80927 7.74216 8.80933 7.74376 8.8093C7.74666 8.80934 7.74967 8.80925 7.75257 8.8093C7.76511 8.8095 7.77779 8.80952 7.79029 8.80983C10.1859 8.86581 12.1271 10.6198 12.4293 12.8938C12.4337 12.927 12.4375 12.9602 12.4412 12.9935C11.1768 14.127 9.50566 14.8162 7.67194 14.8162C5.83888 14.8162 4.16908 14.1273 2.9053 12.9946C3.16396 10.6598 5.14351 8.84819 7.59179 8.8093Z" fill="#9327F0"/>
</svg>
