<svg width="26" height="32" viewBox="0 0 26 32" fill="none" xmlns="http://www.w3.org/2000/svg">
<path d="M2.91635 2.99216C1.74438 4.20357 1.06018 5.83688 1.00378 7.55776C0.947387 9.27864 1.52306 10.957 2.61297 12.2492C3.70288 13.5414 5.22461 14.3498 6.86667 14.5089C8.50874 14.6681 10.147 14.1659 11.446 13.1051L18.7154 20.6953L13.9498 25.6712L15.1308 26.8999L19.8964 21.9284L22.6381 24.791L17.8725 29.7669L19.0534 31L25 24.791L12.6228 11.8677C13.626 10.5078 14.0952 8.79988 13.935 7.09152C13.7748 5.38315 12.9972 3.80271 11.7604 2.67182C10.5236 1.54092 8.92065 0.944549 7.27765 1.00406C5.63464 1.06357 4.07509 1.7745 2.91635 2.99216ZM12.289 7.78504C12.2893 8.94432 11.9046 10.0679 11.2005 10.9642C10.4964 11.8605 9.51642 12.4742 8.42753 12.7007C7.33864 12.9272 6.20822 12.7525 5.22889 12.2063C4.24957 11.66 3.48193 10.7762 3.05678 9.70526C2.63162 8.63434 2.57527 7.44263 2.8973 6.33318C3.21934 5.22374 3.89985 4.26521 4.82288 3.62093C5.7459 2.97664 6.85433 2.68646 7.9593 2.79983C9.06426 2.9132 10.0974 3.42311 10.8827 4.24267C11.3276 4.70473 11.6809 5.25394 11.9222 5.85882C12.1635 6.4637 12.2882 7.11235 12.289 7.76761V7.78504Z" fill="#9327F0" stroke="#9327F0"/>
</svg>
